<?xml version="1.0" encoding="iso-8859-1"?>
<!-- Uploaded to: SVG Repo, www.svgrepo.com, Generator: SVG Repo Mixer Tools -->
<!DOCTYPE svg PUBLIC "-//W3C//DTD SVG 1.1//EN" "http://www.w3.org/Graphics/SVG/1.1/DTD/svg11.dtd">
<svg fill="#000000" version="1.1" id="Capa_1" xmlns="http://www.w3.org/2000/svg" xmlns:xlink="http://www.w3.org/1999/xlink" 
	 width="800px" height="800px" viewBox="0 0 337.014 337.014"
	 xml:space="preserve">
<g>
	<g>
		<path d="M94.412,230.474c-3.506,0-6.803,1.363-9.281,3.841c-2.483,2.488-3.848,5.775-3.848,9.287c0,3.506,1.365,6.793,3.848,9.271
			c4.955,4.966,13.595,4.966,18.551,0c5.112-5.113,5.112-13.434,0.005-18.552C101.21,231.837,97.914,230.474,94.412,230.474z"/>
		<path d="M59.551,169.469c-3.507,0-6.792,1.359-9.271,3.838c-2.488,2.482-3.853,5.778-3.853,9.279c0,3.497,1.365,6.799,3.853,9.276
			c4.961,4.96,13.586,4.949,18.547,0c5.107-5.113,5.107-13.439,0.005-18.551C66.354,170.835,63.058,169.469,59.551,169.469z"/>
		<path d="M335.443,15.336c-1.301-1.296-3.212-1.848-4.98-1.433l-24.074,5.401c-1.606,0.399-9.801,2.577-13.797,6.625
			c-6.256,6.335-7.993,15.454-5.433,23.438c-1.527-0.32-3.153-0.058-4.451,0.981l-38.167,30.567
			c-1.202,0.961-1.922,2.378-2.007,3.906c-0.011,0.11,0.054,0.221,0.054,0.33c-0.064,0-0.111-0.031-0.179-0.031
			c-1.454,0.031-2.852,0.662-3.849,1.737l-23.255,25.276c-8.067,3.207-15.271,7.864-21.37,13.958
			c-4.241,4.247-9.89,6.583-15.895,6.583c-6.006,0-11.654-2.336-15.901-6.583c-4.557-4.557-6.939-10.866-6.541-17.297
			c0.026-0.456-0.005-0.903-0.105-1.344v-0.005c0.058-0.782,0.1-1.553,0.1-2.331c0.011-0.184,0.011-0.357,0.005-0.546
			c-0.01-0.152-0.021-0.305-0.042-0.446c-0.588-16.084-7.129-31.15-18.463-42.478c-11.958-11.953-27.853-18.536-44.756-18.536
			c-13.197,0-25.848,4.01-36.588,11.606c-3.191,2.258-5.911,4.525-8.32,6.94c-0.871,0.876-1.68,1.791-2.478,2.709l-0.299,0.341
			c-0.147,0.115-0.3,0.252-0.436,0.394c-58.957,58.956-58.957,154.889,0,213.85c28.562,28.563,66.541,44.296,106.936,44.296
			c40.395,0,78.367-15.732,106.931-44.296c29.182-29.176,44.908-67.975,44.272-109.234c-0.011-0.551-0.12-1.081-0.314-1.596
			c-0.698-15.906-7.223-30.788-18.467-42.027c-5.827-5.832-12.777-10.393-20.384-13.564l0.541-0.494
			c1.07-0.992,1.695-2.378,1.727-3.843c0-0.042-0.021-0.078-0.021-0.121c0.01,0,0.016,0.01,0.025,0.01c0.104,0,0.2,0,0.305-0.01
			c1.517-0.084,2.939-0.808,3.9-2.005l30.573-38.168c0.923-1.15,1.249-2.567,1.102-3.937c2.368,0.818,4.851,1.343,7.435,1.343
			c6.119,0,11.873-2.409,16.188-6.782c2.993-3.023,7.008-15.879,11.927-38.199C337.276,18.512,336.734,16.638,335.443,15.336z
			 M159.951,188.173l62.516-67.943l0.005-0.005l20.215-21.963l9.658,9.654l-89.921,82.736l-3.024,0.558L159.951,188.173z
			 M42.673,199.453c-4.514-4.503-7.002-10.493-7.002-16.871c0-6.379,2.489-12.373,7.002-16.882
			c4.504-4.504,10.494-6.987,16.872-6.987c6.373,0,12.368,2.483,16.882,6.987c9.301,9.298,9.301,24.446,0,33.748
			c-4.509,4.521-10.504,7.004-16.882,7.004C53.167,206.457,47.178,203.969,42.673,199.453z M111.289,260.468
			c-4.515,4.509-10.504,6.991-16.877,6.991c-6.383,0-12.373-2.482-16.882-6.991c-4.509-4.503-6.998-10.499-6.998-16.872
			c0-6.378,2.489-12.382,6.998-16.888c4.509-4.503,10.499-6.985,16.882-6.985c6.367,0,12.362,2.482,16.877,6.985
			C120.586,236.021,120.586,251.161,111.289,260.468z M121.699,117.826c-3.985,3.989-9.518,6.188-15.575,6.188
			c-7.617,0-15.387-3.406-21.318-9.338c-11.044-11.04-12.457-27.596-3.155-36.903c3.985-3.989,9.523-6.184,15.585-6.184
			c7.617,0,15.387,3.402,21.313,9.333c5.202,5.191,8.462,11.774,9.187,18.53C128.512,106.634,126.365,113.159,121.699,117.826z
			 M170.519,293.545c-4.515,4.509-10.51,6.991-16.883,6.991c-6.373,0-12.368-2.482-16.877-6.991
			c-4.514-4.516-6.998-10.499-6.998-16.883c0-6.378,2.484-12.372,6.998-16.877c4.509-4.503,10.504-6.991,16.877-6.991
			c6.378,0,12.373,2.482,16.883,6.991C179.815,269.093,179.815,284.237,170.519,293.545z M230.183,260.032
			c-4.503,4.505-10.499,6.987-16.883,6.987c-6.378,0-12.366-2.482-16.877-6.987c-4.514-4.504-6.991-10.494-6.991-16.872
			c0-6.384,2.478-12.378,6.991-16.881c4.511-4.516,10.499-6.998,16.877-6.998c6.384,0,12.38,2.482,16.883,6.998
			c4.504,4.493,6.993,10.487,6.993,16.875C237.171,249.527,234.681,255.528,230.183,260.032z M263.862,166.435
			c4.511,4.509,6.993,10.503,6.993,16.876c0,6.383-2.482,12.379-6.993,16.888c-4.509,4.51-10.503,6.987-16.875,6.987
			c-6.379,0-12.369-2.482-16.883-6.993c-4.511-4.508-6.998-10.504-6.998-16.882s2.487-12.378,6.998-16.882
			c4.514-4.504,10.499-6.987,16.883-6.987C253.359,159.443,259.354,161.926,263.862,166.435z M265.033,94.649l-9.076-9.092
			l29.712-23.806l3.181,3.171L265.033,94.649z M317.312,50.948c-4.562,4.619-12.505,4.624-17.07,0
			c-4.763-4.814-4.763-12.652,0-17.47c1.229-1.239,5.501-2.935,8.619-3.711l15.623-3.507
			C321.717,37.798,318.587,48.996,317.312,50.948z"/>
		<path d="M153.636,263.55c-3.506,0-6.797,1.364-9.276,3.842c-2.483,2.478-3.848,5.775-3.848,9.276c0,3.506,1.365,6.804,3.848,9.281
			c4.956,4.955,13.596,4.955,18.552,0c5.112-5.113,5.112-13.434,0.005-18.553C160.435,264.914,157.143,263.55,153.636,263.55z"/>
		<path d="M237.716,174.035c-2.482,2.479-3.843,5.775-3.843,9.276c0,3.508,1.365,6.809,3.849,9.286c4.965,4.955,13.59,4.95,18.545,0
			c2.478-2.478,3.843-5.773,3.843-9.286c0-3.496-1.365-6.797-3.843-9.276c-2.478-2.478-5.773-3.841-9.279-3.841
			C243.484,170.194,240.193,171.558,237.716,174.035z"/>
		<path d="M213.3,230.037c-3.495,0-6.796,1.369-9.275,3.849c-2.478,2.478-3.842,5.763-3.842,9.279c0,3.497,1.364,6.793,3.842,9.271
			c4.962,4.95,13.597,4.95,18.541,0c2.488-2.482,3.854-5.778,3.854-9.275c0-3.507-1.366-6.797-3.844-9.274
			C220.099,231.406,216.808,230.037,213.3,230.037z"/>
	</g>
</g>
</svg>