<?xml version="1.0" encoding="utf-8"?>
<!-- Generator: Adobe Illustrator 24.1.1, SVG Export Plug-In . SVG Version: 6.00 Build 0)  -->
<svg version="1.1" id="Layer_1" xmlns="http://www.w3.org/2000/svg" xmlns:xlink="http://www.w3.org/1999/xlink" x="0px" y="0px"
	 viewBox="0 0 512 512" style="enable-background:new 0 0 512 512;" xml:space="preserve">
<style type="text/css">
	.st0{fill:#95A5A6;}
	.st1{fill:#BDC3C7;}
	.st2{fill:#2C3E50;}
	.st3{fill:#34495E;}
</style>
<g id="XMLID_1_">
	<path id="XMLID_3_" class="st0" d="M141,24.8c-12.4,0-23.2,9.3-23.2,23.2v23.2v23.2v23.2V141v23.2v23.2v23.2v23.2v68.9v23.2v23.2
		v23.2v23.2V419v23.2v23.2v23.2c0,11.6,10.1,23.2,23.2,23.2h114.6h68.9h23.2H371c12.4,0,23.2-11.6,23.2-23.2v-23.2v-23.2V419v-23.2
		v-23.2v-23.2v-23.2v-23.2V138.7v-23.2V92.2V68.9V45.7c0-13.9-10.1-23.2-23.2-23.2H255.6h-68.9h-23.2H141V24.8z"/>
	<path id="XMLID_4_" class="st1" d="M141,1.5c-12.4,0-23.2,9.3-23.2,23.2V48v23.2v23.2v23.2V141v23.2v23.2v23.2v65.8v23.2V323v23.2
		v23.2v23.2V416v23.2v23.2c0,11.6,10.1,23.2,23.2,23.2h114.6h68.9h23.2H371c12.4,0,23.2-11.6,23.2-23.2v-23.2V416v-23.2v-23.2v-23.2
		V323v-23.2v-23.2V116.2V93V69.7V46.5V23.2C394.3,9.3,384.2,0,371,0H255.6h-68.9h-23.2H141V1.5z"/>
	<circle id="XMLID_5_" class="st0" cx="255.6" cy="447.7" r="23.2"/>
	<rect id="XMLID_6_" x="141" y="70.5" class="st2" width="228.5" height="343.1"/>
	<polygon id="XMLID_7_" class="st3" points="141,47.2 141,322.2 370.3,131.7 370.3,47.2 	"/>
	<rect id="XMLID_8_" x="186.7" y="1.5" class="st0" width="137.1" height="23.2"/>
</g>
</svg>
