<svg xmlns="http://www.w3.org/2000/svg" shape-rendering="geometricPrecision" text-rendering="geometricPrecision" image-rendering="optimizeQuality" fill-rule="evenodd" clip-rule="evenodd" viewBox="0 0 512 493.46"><g fill-rule="nonzero"><path fill="#6BBE66" d="M103.74 355.45v47.06h59.3v-47.06h-59.3zm317.89-135.52v182.58h59.3V219.93h-59.3zm-105.95 51.91v130.67h59.26V271.84h-59.26zm-105.95 34.08v96.59h59.26v-96.59h-59.26z"/><path fill="#393939" d="M51.99 87.96v353.51h450.06v51.99H26.02C11.66 493.46 0 481.81 0 467.45V87.96h51.99zm417.83-14.19l4.31 33.78c1.33 10.41 10.83 17.76 21.25 16.47 10.41-1.32 17.76-10.83 16.47-21.24l-10.99-85.57c-.58-6.01-4.03-11.66-9.67-14.81-5.15-2.86-11-3.07-16.1-1.12l-82.41 31.74c-9.79 3.78-14.65 14.78-10.87 24.57 3.77 9.79 14.77 14.65 24.56 10.87l28.14-10.83c-30.84 41.83-67.77 76.77-107.64 103.99-57.43 39.21-120.76 62.24-180.55 66.56-10.5.74-18.38 9.83-17.64 20.33.75 10.5 9.84 18.38 20.34 17.63 66.35-4.68 136.31-30 199.3-73.03 45.31-30.91 87.1-71.08 121.5-119.34z"/></g></svg>