<?xml version="1.0" encoding="utf-8"?>
<!-- Generator: Adobe Illustrator 24.1.1, SVG Export Plug-In . SVG Version: 6.00 Build 0)  -->
<svg version="1.1" id="Layer_1" xmlns="http://www.w3.org/2000/svg" xmlns:xlink="http://www.w3.org/1999/xlink" x="0px" y="0px"
	 viewBox="0 0 512 512" style="enable-background:new 0 0 512 512;" xml:space="preserve">
<g>
	<path d="M398.5,113.51c-37.52-37.39-98.23-37.39-135.76,0c-26.19,26.17-61.22,171.58-65.12,188.07c-0.8,3.58,0.29,7.33,2.91,9.91
		c2.62,2.59,6.39,3.66,10,2.83c16.51-3.93,161.85-38.99,188.06-65.16c37.48-37.48,37.49-98.26,0-135.75L398.5,113.51z
		 M330.63,213.37c-17.66,0-31.99-14.32-31.99-31.99s14.33-31.99,31.99-31.99c17.67,0,31.99,14.32,31.99,31.99
		S348.3,213.37,330.63,213.37z"/>
	<path d="M508.8,88.53L423.48,3.21c-2.28-2.37-5.55-3.53-8.82-3.13c-3.26,0.4-6.16,2.27-7.85,5.07l-31.99,53.32
		c-2.53,4.21-1.87,9.59,1.59,13.06l63.99,63.99c3.47,3.46,8.84,4.12,13.04,1.59l53.32-31.99c5.06-3,6.74-9.54,3.73-14.61l-1.59-2.06
		L508.8,88.53z"/>
	<path d="M362.62,384.01h-255.7c-10.75,1.16-20.4-6.62-21.56-17.37l-0.03-3.96c-1.05-10.73,6.79-20.28,17.52-21.33h3.81h42.66
		c11.79,0,21.33-9.55,21.33-21.33c0-11.78-9.54-21.33-21.33-21.33h-42.66c-34.33-1-62.98,26.02-63.99,60.35v3.63
		c-1,34.34,26.02,62.99,60.35,63.99h3.63h255.71c11.78-0.07,21.38,9.43,21.45,21.19c0.07,11.79-9.42,21.39-21.2,21.48H21.35
		c-11.78,0-21.33,9.54-21.33,21.33c0,11.77,9.55,21.33,21.33,21.33h341.28c35.35,0,63.99-28.66,63.99-63.99
		C426.61,412.66,397.97,384.01,362.62,384.01z"/>
</g>
</svg>
