<?xml version="1.0" encoding="utf-8"?>
<!-- Svg Vector Icons : http://www.onlinewebfonts.com/icon -->
<!DOCTYPE svg PUBLIC "-//W3C//DTD SVG 1.1//EN" "http://www.w3.org/Graphics/SVG/1.1/DTD/svg11.dtd">
<svg version="1.1" xmlns="http://www.w3.org/2000/svg" xmlns:xlink="http://www.w3.org/1999/xlink" x="0px" y="0px" viewBox="0 0 256 256" enable-background="new 0 0 256 256" xml:space="preserve">
<metadata> Svg Vector Icons : http://www.onlinewebfonts.com/icon </metadata>
<g><g><g><path fill="#000000" d="M157.2,11.2c-1.2,0.8-3.8,4.1-6.8,8.7l-4.9,7.3l-1.5-1c-3.5-2.3-4.5-2.6-6.5-1.8c-1.7,0.7-5.3,6-30.4,44.6c-15.7,24.1-28.6,44.6-28.7,45.4c-0.3,2.1,0.8,4.1,2.8,4.7c2,0.7,3.8,0.1,5.3-1.9c0.7-0.8,12.6-19,26.6-40.5c20.5-31.5,25.7-39.2,27-39.7c1.9-0.8-0.6-2.2,22.9,13.1c8.4,5.5,15.4,10,15.5,9.9c0.1-0.1,3.4-5.2,7.4-11.4l7.4-11.3v-3.6c0-2.8-0.3-4-1.2-5.2c-0.7-0.9-6.7-5.3-13.8-9.9c-12.1-7.9-12.7-8.2-15.9-8.4C159.7,9.9,158.9,10.1,157.2,11.2z"/><path fill="#000000" d="M118.4,85.8c-13.3,20.5-24.9,38-25.6,38.8c-2.2,2.4-6,4-9.9,4.4l-3.6,0.3l-15.8,24.3c-11.5,17.7-15.6,24.4-15.2,24.9c1.9,1.8,36.9,24,37.3,23.6c0.4-0.4,42.7-65.5,78.4-120.4c4.8-7.4,8.5-13.7,8.3-13.9c-0.4-0.4-29.4-19.2-29.6-19.2C142.7,48.6,131.7,65.3,118.4,85.8z"/><path fill="#000000" d="M41.8,187.8c-0.9,3.6-9.7,49.7-9.7,50.9c0,0.7,0.5,1.8,1,2.4c0.9,0.9,1.4,1,2.8,0.6c1.8-0.5,40.5-27.2,43-29.6c0.9-0.9,1.2-1.5,0.8-1.8c-8.2-5.5-36.7-23.8-37.1-23.8C42.3,186.4,41.9,187,41.8,187.8z"/><path fill="#000000" d="M51.1,242.1l-5.5,3.9h88.1c87.4,0,88.1,0,89.2-1.1c1.4-1.4,1.4-4.1,0-5.5c-1.1-1.1-1.8-1.1-83.7-1.1H56.6L51.1,242.1z"/></g></g></g>
</svg>