<?xml version="1.0" encoding="utf-8"?>
<!-- Svg Vector Icons : http://www.onlinewebfonts.com/icon -->
<!DOCTYPE svg PUBLIC "-//W3C//DTD SVG 1.1//EN" "http://www.w3.org/Graphics/SVG/1.1/DTD/svg11.dtd">
<svg version="1.1" xmlns="http://www.w3.org/2000/svg" xmlns:xlink="http://www.w3.org/1999/xlink" x="0px" y="0px" viewBox="0 0 256 256" enable-background="new 0 0 256 256" xml:space="preserve">
<metadata> Svg Vector Icons : http://www.onlinewebfonts.com/icon </metadata>
<g><g><g><path fill="#000000" d="M22.2,10.2c-0.4,0.2-1.2,0.8-1.7,1.4c-0.9,1-0.9,7.4-0.9,106.8v105.7l1.4,1.4l1.4,1.4h10.9c10.6,0,10.9,0,12.3-1.2c1.9-1.7,1.9-4.2,0-5.9c-1.4-1.1-1.8-1.2-9.5-1.2h-8v-99.9V18.7l53-0.1l53-0.2l1.3-1.5c1.6-1.9,1.6-3.5,0-5.4l-1.3-1.5L78.4,10C48,10,22.6,10.1,22.2,10.2z"/><path fill="#000000" d="M145.9,13.8c-1,1.4-1.1,2-1.1,19.5v18.1l1.4,1.4l1.4,1.4h18h17.9l1.3-1.3c0.9-0.9,1.3-1.8,1.3-3.2c0-1.9-0.7-2.7-17.6-19.6c-16.7-16.7-17.7-17.6-19.5-17.6C147.4,12.5,146.7,12.8,145.9,13.8z M162.8,36.5l9.4,9.4h-9.5h-9.5v-9.4c0-5.2,0.1-9.4,0.2-9.4C153.4,27.1,157.6,31.3,162.8,36.5z"/><path fill="#000000" d="M44.6,47.7v4.4h37.6h37.6v-4.4v-4.4H82.2H44.6V47.7L44.6,47.7z"/><path fill="#000000" d="M180.6,60.6c-2,1.2-2.3,2.1-2.3,7.9c0,5.3,0.1,5.7,1.3,6.9c0.8,0.8,1.9,1.3,2.9,1.3c1,0,2.1-0.5,2.9-1.3c1.2-1.1,1.3-1.6,1.3-6.7c0-5-0.1-5.6-1.1-6.8C184,60.3,182,59.7,180.6,60.6z"/><path fill="#000000" d="M211.3,60.5c-1.5,0.2-3.8,0.9-5.2,1.7c-2,1-18.8,17.5-72.4,71.2c-46.1,46.2-70.1,70.5-70.8,71.9c-0.6,1.1-3.7,9.9-6.9,19.5c-5.5,16.4-5.8,17.5-5.1,18.8c0.4,0.7,1.4,1.7,2.2,2.1c1.3,0.7,2.2,0.5,20-5.4l18.7-6.2l70.9-70.8c79.1-78.9,73.6-73,73.6-80.7c0-5.9-1.4-8.6-7.9-15c-2.9-2.8-6.1-5.4-7.2-5.9C218.5,60.6,214.6,60.1,211.3,60.5z M216.7,68.9c1.7,0.6,9.8,8.4,10.9,10.5c0.9,1.8,0.9,4.6,0,6.8c-0.4,0.9-2.3,3.2-4.2,5.1l-3.4,3.3l-8.9-8.9l-8.8-8.9l3.5-3.5C210.8,68.5,213,67.5,216.7,68.9z M140.1,150.5l-61.8,61.8l-2.9-2.9l-2.9-2.9l61.8-61.8l61.8-61.8l2.9,2.9l2.9,2.9L140.1,150.5z M151.9,162.2L90,224.1l-2.7-2.8l-2.8-2.7l61.8-61.8l61.8-61.8l2.8,2.7l2.7,2.8L151.9,162.2z M75.7,221.7c4.6,4.6,6.5,6.8,5.9,7c-2.2,0.8-19.5,6.5-19.8,6.5c-0.2,0,1.1-4.6,3-10.2c1.8-5.6,3.5-10.2,3.8-10.2C68.7,214.9,71.9,217.9,75.7,221.7z"/><path fill="#000000" d="M44.6,72.7v4.4h45.9h45.9v-4.4v-4.4H90.5H44.6V72.7z"/><path fill="#000000" d="M44.6,97.8v4.4h54.3h54.3v-4.4v-4.4H98.9H44.6V97.8z"/><path fill="#000000" d="M180.5,152.4c-0.6,0.3-1.4,1.1-1.7,1.8c-0.4,0.9-0.6,10.7-0.6,32.8v31.6h-32.1H114l-1.3,1.3c-1.7,1.7-1.7,4.1,0,5.7l1.3,1.3h34.9h34.9l1.4-1.4l1.4-1.4v-34.6V155l-1.1-1.3C184,152.1,182.1,151.6,180.5,152.4z"/></g></g></g>
</svg>